<svg width="28" height="31" viewBox="0 0 28 31" fill="none" xmlns="http://www.w3.org/2000/svg">
<mask id="mask0_235_109" style="mask-type:luminance" maskUnits="userSpaceOnUse" x="0" y="0" width="28" height="31">
<path d="M27.584 0H0V31H27.584V0Z" fill="white"/>
</mask>
<g mask="url(#mask0_235_109)">
<path d="M27.584 12.7042C27.5848 13.7816 27.4345 14.8545 27.1368 15.8964C26.8459 16.9184 26.4199 17.9037 25.8684 18.8302C25.5598 19.3448 25.2113 19.8384 24.8256 20.3068C24.8105 20.3308 24.7995 20.3442 24.796 20.3529L24.7925 20.3562C24.492 20.7208 24.1711 21.0707 23.8309 21.4045C23.3485 21.8767 22.8268 22.3136 22.2707 22.7113C22.2707 22.7113 18.2695 25.3558 13.4701 25.3558L12.6825 25.359L9.31398 25.3793V16.8327H13.803C14.3942 16.8371 14.9798 16.728 15.5226 16.5124C16.0578 16.3032 16.5446 16.0019 16.957 15.6246C17.3682 15.2439 17.6949 14.7929 17.9186 14.2971C18.154 13.7943 18.2724 13.2517 18.266 12.7042C18.268 12.4266 18.2394 12.1496 18.1808 11.8773C18.1788 11.8742 18.1777 11.8707 18.1772 11.8672C18.1214 11.6052 18.0347 11.3495 17.9186 11.1049C17.4639 10.1069 16.6023 9.31264 15.5186 8.89279C14.9773 8.67697 14.3929 8.56803 13.803 8.57301H9.31398C9.31333 6.29958 8.33185 4.11944 6.58526 2.51184C4.83872 0.904243 2.47006 0.000772005 0 3.80932e-05H13.803C15.0413 -0.00277852 16.2742 0.150613 17.4673 0.455934C18.6174 0.75125 19.7211 1.18259 20.7507 1.73918C21.1206 1.9399 21.4791 2.1577 21.827 2.38934L21.8561 2.40595C23.4143 3.44682 24.7213 4.77366 25.6944 6.30276C26.2984 7.25198 26.767 8.26888 27.0886 9.32838C27.4201 10.4276 27.5868 11.5634 27.584 12.7042Z" fill="#FFCC3F"/>
<path d="M26.0896 30.9999H16.1209L14.5497 27.6546L13.4683 25.3543C18.2676 25.3543 22.2689 22.7098 22.2689 22.7098L23.4149 25.2016L23.6155 25.6339C23.6155 25.6372 23.6195 25.6372 23.6195 25.6404L26.0896 30.9999Z" fill="#FFCC3F"/>
<path d="M9.31398 8.57297V30.9986H0V0C2.47006 0.000733914 4.83872 0.904206 6.58526 2.5118C8.33185 4.1194 9.31333 6.29953 9.31398 8.57297Z" fill="#FFCC3F"/>
<g style="mix-blend-mode:multiply" opacity="0.16">
<path d="M9.31398 8.57296C9.31333 6.29953 8.33185 4.1194 6.58526 2.5118C4.83872 0.904206 2.47007 0.000733914 0 0H8.43412C10.3162 1.62009 12.1245 4.27472 12.5717 8.57296H9.31398Z" fill="black"/>
</g>
<g style="mix-blend-mode:multiply" opacity="0.16">
<path d="M12.6823 16.8326V25.3576L9.31372 25.3779V16.8326H12.6823Z" fill="black"/>
</g>
<g style="mix-blend-mode:multiply" opacity="0.25">
<path d="M27.5841 12.7034C27.5849 13.7808 27.4346 14.8537 27.1369 15.8956C26.846 16.9176 26.42 17.9029 25.8685 18.8294C25.56 19.344 25.2115 19.8375 24.8257 20.306C24.8924 20.2072 25.0548 19.9691 25.2729 19.6051C25.6714 18.9417 26.0138 18.251 26.2971 17.5392C26.693 16.543 26.9649 15.5086 27.1073 14.4559C27.1814 13.8663 27.2159 13.2729 27.2106 12.6794C27.2041 12.0663 27.1498 11.4544 27.0482 10.8484C26.9517 10.2424 26.8058 9.64391 26.6115 9.05808C26.4238 8.49001 26.1979 7.9332 25.9352 7.39092C25.6846 6.88311 25.4031 6.38873 25.0919 5.91018C24.7911 5.45751 24.4783 5.03899 24.1709 4.668C23.6712 4.06569 23.121 3.50025 22.5255 2.97685C22.0934 2.59201 21.8271 2.38806 21.8271 2.38806L21.8562 2.40467C23.4145 3.44554 24.7214 4.77238 25.6945 6.30148C26.2986 7.25069 26.7672 8.2676 27.0888 9.32709C27.4203 10.4265 27.5869 11.5625 27.5841 12.7034Z" fill="black"/>
</g>
<g style="mix-blend-mode:multiply" opacity="0.25">
<path d="M26.09 31H18.6541C19.2752 30.9151 19.8929 30.8638 20.514 30.8154C21.1352 30.7669 21.7529 30.7337 22.369 30.7065C22.9852 30.6793 23.6113 30.6659 24.229 30.6553L25.5155 30.6451C25.3896 30.3595 25.2648 30.0734 25.146 29.7841C24.9499 29.3319 24.7649 28.8792 24.5875 28.4196C24.41 27.96 24.2365 27.5009 24.0696 27.0353C23.9026 26.5697 23.7517 26.1065 23.6184 25.6367L26.09 31Z" fill="black"/>
</g>
<g style="mix-blend-mode:screen" opacity="0.7">
<path d="M0.388034 15.5018C0.384525 16.4709 0.380518 17.4399 0.373499 18.3913C0.36648 19.3428 0.350931 20.2832 0.339901 21.1922C0.314333 23.0094 0.273226 24.7042 0.221587 26.1573C0.12934 29.0643 0 31 0 31V0C0 0 0.12934 1.93802 0.221587 4.84274C0.271722 6.29625 0.314333 7.99064 0.339901 9.80822C0.350931 10.7168 0.373499 11.6563 0.373499 12.6091C0.373499 13.562 0.383522 14.5319 0.388034 15.5018Z" fill="#DBDBDB"/>
</g>
<g style="mix-blend-mode:multiply" opacity="0.25">
<path d="M18.4356 13.3716C18.4216 13.626 18.3771 13.8783 18.3028 14.1237C18.2621 14.2529 18.21 14.3959 18.1619 14.5182C18.1059 14.6558 18.0406 14.7901 17.9664 14.9201C17.813 15.1963 17.6243 15.4545 17.4043 15.6893C17.1767 15.9307 16.9212 16.1486 16.6423 16.339C16.3572 16.5226 16.0525 16.679 15.7329 16.8055C15.4235 16.9262 15.0995 17.0118 14.7678 17.0607C14.4597 17.1066 14.147 17.1191 13.8358 17.0981C13.555 17.0847 13.2963 17.0607 13.0522 17.0367C12.0871 16.9518 11.4434 16.8328 11.4434 16.8328H13.8027C14.3938 16.8372 14.9795 16.7282 15.5223 16.5125C16.0574 16.3033 16.5443 16.002 16.9566 15.6247C17.3679 15.244 17.6945 14.7931 17.9182 14.2972C18.1537 13.7944 18.272 13.2518 18.2657 12.7043C18.2677 12.4267 18.2391 12.1497 18.1804 11.8774C18.2396 12.0017 18.2867 12.1304 18.3213 12.2623C18.4185 12.6248 18.4571 12.9986 18.4356 13.3716Z" fill="black"/>
</g>
</g>
</svg>
